<svg version="1.1" viewBox="0.0 0.0 960.0 540.0" fill="none" stroke="none" stroke-linecap="square" stroke-miterlimit="10" xmlns:xlink="http://www.w3.org/1999/xlink" xmlns="http://www.w3.org/2000/svg"><clipPath id="p.0"><path d="m0 0l960.0 0l0 540.0l-960.0 0l0 -540.0z" clip-rule="nonzero"/></clipPath><g clip-path="url(#p.0)"><path fill="#00517c" d="m0 0l960.0 0l0 540.0l-960.0 0z" fill-rule="evenodd"/><path fill="#000000" fill-opacity="0.0" d="m160.08398 188.71976l0 -118.10499l113.55643 0" fill-rule="evenodd"/><path stroke="#8bc34a" stroke-width="3.0" stroke-miterlimit="8.0" stroke-linecap="butt" d="m160.08398 188.71976l0 -118.10499l113.55643 0" fill-rule="evenodd"/><path fill="#000000" fill-opacity="0.0" d="m799.9147 350.96326l0 118.10498l-113.5564 0" fill-rule="evenodd"/><path stroke="#8bc34a" stroke-width="3.0" stroke-miterlimit="8.0" stroke-linecap="butt" d="m799.9147 350.96326l0 118.10498l-113.5564 0" fill-rule="evenodd"/><path fill="#000000" fill-opacity="0.0" d="m457.70096 295.79672l44.59842 0" fill-rule="evenodd"/><path stroke="#039be5" stroke-width="4.0" stroke-linejoin="round" stroke-linecap="butt" d="m457.70096 295.79672l44.59842 0" fill-rule="evenodd"/><path fill="#000000" fill-opacity="0.0" d="m176.4096 124.82154l607.1811 0l0 153.00787l-607.1811 0z" fill-rule="evenodd"/><path fill="#ffffff" d="m348.94196 192.5763q-3.90625 0 -6.984375 -1.53125q-3.0625 -1.546875 -4.84375 -4.390625q-1.765625 -2.859375 -1.765625 -6.84375l0 -21.65625l-4.234375 -0.734375l0 -3.296875l13.609375 0l0 3.296875l-4.234375 0.734375l0 21.65625q0 2.84375 1.078125 4.78125q1.078125 1.921875 3.0 2.90625q1.9375 0.96875 4.453125 0.96875q2.5625 0 4.515625 -0.96875q1.96875 -0.96875 3.078125 -2.890625q1.109375 -1.921875 1.109375 -4.796875l0 -21.65625l-4.25 -0.734375l0 -3.296875l13.625 0l0 3.296875l-4.25 0.734375l0 21.65625q0 4.125 -1.734375 6.984375q-1.734375 2.84375 -4.859375 4.3125q-3.109375 1.46875 -7.3125 1.46875zm21.897186 -0.546875l0 -3.28125l4.25 -0.734375l0 -20.125l-4.25 -0.734375l0 -3.296875l8.828125 0l0.375 4.1875q1.40625 -2.234375 3.515625 -3.46875q2.125 -1.234375 4.84375 -1.234375q4.546875 0 7.046875 2.671875q2.5 2.65625 2.5 8.234375l0 13.765625l4.25 0.734375l0 3.28125l-13.625 0l0 -3.28125l4.25 -0.734375l0 -13.671875q0 -3.71875 -1.46875 -5.28125q-1.46875 -1.5625 -4.5 -1.5625q-2.203125 0 -3.921875 1.078125q-1.703125 1.0625 -2.71875 2.90625l0 16.53125l4.25 0.734375l0 3.28125l-13.625 0zm45.78824 0.546875q-3.4375 0 -5.90625 -1.703125q-2.453125 -1.703125 -3.765625 -4.75q-1.296875 -3.046875 -1.296875 -7.109375l0 -0.546875q0 -4.53125 1.296875 -7.9375q1.3125 -3.421875 3.78125 -5.296875q2.46875 -1.890625 5.9375 -1.890625q2.5 0 4.40625 0.921875q1.921875 0.921875 3.28125 2.65625l0 -11.46875l-4.25 -0.734375l0 -3.3125l4.25 0l5.125 0l0 36.609375l4.234375 0.734375l0 3.28125l-8.6875 0l-0.421875 -3.359375q-1.375 1.921875 -3.375 2.921875q-1.984375 0.984375 -4.609375 0.984375zm1.296875 -4.171875q2.296875 0 3.859375 -1.03125q1.5625 -1.046875 2.578125 -2.953125l0 -13.0625q-1.0 -1.78125 -2.59375 -2.8125q-1.578125 -1.046875 -3.796875 -1.046875q-2.4375 0 -4.03125 1.390625q-1.59375 1.390625 -2.375 3.859375q-0.78125 2.453125 -0.78125 5.71875l0 0.546875q0 4.234375 1.75 6.8125q1.75 2.578125 5.390625 2.578125zm32.0542 4.171875q-3.90625 0 -6.796875 -1.78125q-2.890625 -1.78125 -4.46875 -4.953125q-1.578125 -3.1875 -1.578125 -7.359375l0 -1.140625q0 -4.015625 1.65625 -7.171875q1.65625 -3.171875 4.40625 -5.0q2.75 -1.828125 6.0 -1.828125q3.796875 0 6.359375 1.5625q2.578125 1.546875 3.875 4.375q1.296875 2.828125 1.296875 6.65625l0 3.203125l-18.28125 0l-0.078125 0.125q0.0625 2.71875 0.953125 4.8125q0.90625 2.09375 2.59375 3.296875q1.6875 1.1875 4.0625 1.1875q2.609375 0 4.5625 -0.734375q1.96875 -0.75 3.40625 -2.046875l2.0 3.328125q-1.5 1.46875 -4.0 2.46875q-2.484375 1.0 -5.96875 1.0zm-7.375 -17.453125l13.0 0l0 -0.671875q0 -2.03125 -0.71875 -3.625q-0.71875 -1.609375 -2.140625 -2.53125q-1.40625 -0.921875 -3.546875 -0.921875q-1.71875 0 -3.125 1.0q-1.40625 1.0 -2.328125 2.71875q-0.90625 1.71875 -1.1875 3.90625l0.046875 0.125zm22.059814 16.90625l0 -3.28125l4.25 -0.734375l0 -20.125l-4.25 -0.734375l0 -3.296875l8.828125 0l0.4375 3.59375l0.0625 0.484375q1.1875 -2.15625 2.9375 -3.375q1.765625 -1.21875 4.03125 -1.21875q0.8125 0 1.65625 0.140625q0.84375 0.140625 1.21875 0.265625l-0.6875 4.765625l-3.5625 -0.203125q-2.03125 -0.140625 -3.421875 0.921875q-1.375 1.046875 -2.125 2.828125l0 15.953125l4.25 0.734375l0 3.28125l-13.625 0zm32.72699 0l-7.421875 -24.5l-3.140625 -0.375l0 -3.296875l11.640625 0l0 3.296875l-3.46875 0.578125l3.875 14.03125l0.890625 3.34375l0.15625 0l1.140625 -3.34375l6.125 -17.90625l4.328125 0l5.828125 17.859375l1.25 3.953125l0.15625 0l1.21875 -3.953125l3.9375 -14.015625l-3.546875 -0.546875l0 -3.296875l11.375 0l0 3.296875l-3.125 0.453125l-7.28125 24.421875l-4.875 0l-5.703125 -16.921875l-1.34375 -4.53125l-0.15625 0.015625l-1.328125 4.515625l-6.125 16.921875l-4.40625 0zm46.59436 0.546875q-4.40625 0 -6.703125 -2.140625q-2.28125 -2.15625 -2.28125 -6.0625q0 -2.6875 1.46875 -4.671875q1.46875 -2.0 4.25 -3.09375q2.796875 -1.109375 6.671875 -1.109375l5.03125 0l0 -2.765625q0 -2.546875 -1.5625 -3.953125q-1.546875 -1.40625 -4.359375 -1.40625q-1.765625 0 -3.078125 0.4375q-1.296875 0.421875 -2.359375 1.171875l-0.546875 3.9375l-3.953125 0l0 -6.46875q1.890625 -1.53125 4.421875 -2.3125q2.53125 -0.796875 5.59375 -0.796875q5.140625 0 8.046875 2.453125q2.921875 2.4375 2.921875 6.984375l0 13.578125q0 0.546875 0.015625 1.0625q0.015625 0.515625 0.0625 1.046875l2.734375 0.28125l0 3.28125l-7.375 0q-0.234375 -1.140625 -0.359375 -2.046875q-0.125 -0.921875 -0.1875 -1.828125q-1.484375 1.890625 -3.71875 3.15625q-2.21875 1.265625 -4.734375 1.265625zm0.75 -4.296875q2.546875 0 4.65625 -1.21875q2.109375 -1.234375 3.03125 -2.953125l0 -5.09375l-5.21875 0q-3.53125 0 -5.3125 1.6875q-1.765625 1.6875 -1.765625 3.78125q0 1.84375 1.140625 2.828125q1.15625 0.96875 3.46875 0.96875zm29.554382 4.1875q-3.125 0 -4.96875 -1.828125q-1.828125 -1.84375 -1.828125 -5.875l0 -17.109375l-4.453125 0l0 -3.796875l4.453125 0l0 -6.796875l5.125 0l0 6.796875l6.125 0l0 3.796875l-6.125 0l0 17.109375q0 2.03125 0.8125 3.0q0.8125 0.953125 2.15625 0.953125q0.921875 0 2.03125 -0.15625q1.125 -0.171875 1.75 -0.3125l0.703125 3.359375q-1.125 0.34375 -2.75 0.59375q-1.625 0.265625 -3.03125 0.265625zm21.378357 0.109375q-3.90625 0 -6.796875 -1.78125q-2.890625 -1.78125 -4.46875 -4.953125q-1.578125 -3.1875 -1.578125 -7.359375l0 -1.140625q0 -4.015625 1.65625 -7.171875q1.65625 -3.171875 4.40625 -5.0q2.75 -1.828125 6.0 -1.828125q3.796875 0 6.359375 1.5625q2.578125 1.546875 3.875 4.375q1.296875 2.828125 1.296875 6.65625l0 3.203125l-18.28125 0l-0.078125 0.125q0.0625 2.71875 0.953125 4.8125q0.90625 2.09375 2.59375 3.296875q1.6875 1.1875 4.0625 1.1875q2.609375 0 4.5625 -0.734375q1.96875 -0.75 3.40625 -2.046875l2.0 3.328125q-1.5 1.46875 -4.0 2.46875q-2.484375 1.0 -5.96875 1.0zm-7.375 -17.453125l13.0 0l0 -0.671875q0 -2.03125 -0.71875 -3.625q-0.71875 -1.609375 -2.140625 -2.53125q-1.40625 -0.921875 -3.546875 -0.921875q-1.71875 0 -3.125 1.0q-1.40625 1.0 -2.328125 2.71875q-0.90625 1.71875 -1.1875 3.90625l0.046875 0.125zm22.059814 16.90625l0 -3.28125l4.25 -0.734375l0 -20.125l-4.25 -0.734375l0 -3.296875l8.828125 0l0.4375 3.59375l0.0625 0.484375q1.1875 -2.15625 2.9375 -3.375q1.765625 -1.21875 4.03125 -1.21875q0.8125 0 1.65625 0.140625q0.84375 0.140625 1.21875 0.265625l-0.6875 4.765625l-3.5625 -0.203125q-2.03125 -0.140625 -3.421875 0.921875q-1.375 1.046875 -2.125 2.828125l0 15.953125l4.25 0.734375l0 3.28125l-13.625 0z" fill-rule="nonzero"/><path fill="#ffffff" d="m336.54312 256.02942l0 -3.28125l2.8125 -0.390625l13.25 -34.234375l4.40625 0l13.015625 34.234375l2.78125 0.390625l0 3.28125l-10.890625 0l0 -3.28125l2.875 -0.5l-2.5 -6.96875l-15.1875 0l-2.578125 6.96875l2.875 0.5l0 3.28125l-10.859375 0zm12.15625 -15.046875l12.03125 0l-5.578125 -15.421875l-0.3125 -0.859375l-0.15625 0l-0.3125 0.859375l-5.671875 15.421875zm38.152374 15.59375q-3.4375 0 -5.90625 -1.703125q-2.453125 -1.703125 -3.765625 -4.75q-1.296875 -3.046875 -1.296875 -7.109375l0 -0.546875q0 -4.53125 1.296875 -7.9375q1.3125 -3.421875 3.78125 -5.296875q2.46875 -1.890625 5.9375 -1.890625q2.5 0 4.40625 0.921875q1.921875 0.921875 3.28125 2.65625l0 -11.46875l-4.25 -0.734375l0 -3.3125l4.25 0l5.125 0l0 36.609375l4.234375 0.734375l0 3.28125l-8.6875 0l-0.421875 -3.359375q-1.375 1.921875 -3.375 2.921875q-1.984375 0.984375 -4.609375 0.984375zm1.296875 -4.171875q2.296875 0 3.859375 -1.03125q1.5625 -1.046875 2.578125 -2.953125l0 -13.0625q-1.0 -1.78125 -2.59375 -2.8125q-1.578125 -1.046875 -3.796875 -1.046875q-2.4375 0 -4.03125 1.390625q-1.59375 1.390625 -2.375 3.859375q-0.78125 2.453125 -0.78125 5.71875l0 0.546875q0 4.234375 1.75 6.8125q1.75 2.578125 5.390625 2.578125zm31.043762 3.625l-10.03125 -24.484375l-2.921875 -0.390625l0 -3.296875l11.828125 0l0 3.296875l-3.671875 0.53125l6.25 16.03125l0.734375 2.265625l0.15625 0l0.828125 -2.265625l5.8125 -16.03125l-3.78125 -0.53125l0 -3.296875l11.796875 0l0 3.296875l-2.96875 0.390625l-9.53125 24.484375l-4.5 0zm31.892761 0.546875q-3.90625 0 -6.796875 -1.78125q-2.890625 -1.78125 -4.46875 -4.953125q-1.578125 -3.1875 -1.578125 -7.359375l0 -1.140625q0 -4.015625 1.65625 -7.171875q1.65625 -3.171875 4.40625 -5.0q2.75 -1.828125 6.0 -1.828125q3.796875 0 6.359375 1.5625q2.578125 1.546875 3.875 4.375q1.296875 2.828125 1.296875 6.65625l0 3.203125l-18.28125 0l-0.078125 0.125q0.0625 2.71875 0.953125 4.8125q0.90625 2.09375 2.59375 3.296875q1.6875 1.1875 4.0625 1.1875q2.609375 0 4.5625 -0.734375q1.96875 -0.75 3.40625 -2.046875l2.0 3.328125q-1.5 1.46875 -4.0 2.46875q-2.484375 1.0 -5.96875 1.0zm-7.375 -17.453125l13.0 0l0 -0.671875q0 -2.03125 -0.71875 -3.625q-0.71875 -1.609375 -2.140625 -2.53125q-1.40625 -0.921875 -3.546875 -0.921875q-1.71875 0 -3.125 1.0q-1.40625 1.0 -2.328125 2.71875q-0.90625 1.71875 -1.1875 3.90625l0.046875 0.125zm22.10669 16.90625l0 -3.28125l4.25 -0.734375l0 -20.125l-4.25 -0.734375l0 -3.296875l8.828125 0l0.375 4.1875q1.40625 -2.234375 3.515625 -3.46875q2.125 -1.234375 4.84375 -1.234375q4.546875 0 7.046875 2.671875q2.5 2.65625 2.5 8.234375l0 13.765625l4.25 0.734375l0 3.28125l-13.625 0l0 -3.28125l4.25 -0.734375l0 -13.671875q0 -3.71875 -1.46875 -5.28125q-1.46875 -1.5625 -4.5 -1.5625q-2.203125 0 -3.921875 1.078125q-1.703125 1.0625 -2.71875 2.90625l0 16.53125l4.25 0.734375l0 3.28125l-13.625 0zm43.88202 0.4375q-3.125 0 -4.96875 -1.828125q-1.828125 -1.84375 -1.828125 -5.875l0 -17.109375l-4.453125 0l0 -3.796875l4.453125 0l0 -6.796875l5.125 0l0 6.796875l6.125 0l0 3.796875l-6.125 0l0 17.109375q0 2.03125 0.8125 3.0q0.8125 0.953125 2.15625 0.953125q0.921875 0 2.03125 -0.15625q1.125 -0.171875 1.75 -0.3125l0.703125 3.359375q-1.125 0.34375 -2.75 0.59375q-1.625 0.265625 -3.03125 0.265625zm21.46167 0.109375q-4.59375 0 -7.171875 -2.9375q-2.578125 -2.953125 -2.578125 -9.171875l0 -12.578125l-3.21875 -0.734375l0 -3.296875l3.21875 0l5.140625 0l0 16.65625q0 4.515625 1.328125 6.203125q1.328125 1.6875 4.140625 1.6875q2.734375 0 4.515625 -1.09375q1.78125 -1.109375 2.6875 -3.140625l0 -16.28125l-3.765625 -0.734375l0 -3.296875l3.765625 0l5.125 0l0 24.15625l3.234375 0.734375l0 3.28125l-7.828125 0l-0.34375 -4.171875q-1.328125 2.265625 -3.421875 3.5q-2.09375 1.21875 -4.828125 1.21875zm19.965576 -0.546875l0 -3.28125l4.25 -0.734375l0 -20.125l-4.25 -0.734375l0 -3.296875l8.828125 0l0.4375 3.59375l0.0625 0.484375q1.1875 -2.15625 2.9375 -3.375q1.765625 -1.21875 4.03125 -1.21875q0.8125 0 1.65625 0.140625q0.84375 0.140625 1.21875 0.265625l-0.6875 4.765625l-3.5625 -0.203125q-2.03125 -0.140625 -3.421875 0.921875q-1.375 1.046875 -2.125 2.828125l0 15.953125l4.25 0.734375l0 3.28125l-13.625 0zm34.60724 0.546875q-3.90625 0 -6.796875 -1.78125q-2.890625 -1.78125 -4.46875 -4.953125q-1.578125 -3.1875 -1.578125 -7.359375l0 -1.140625q0 -4.015625 1.65625 -7.171875q1.65625 -3.171875 4.40625 -5.0q2.75 -1.828125 6.0 -1.828125q3.796875 0 6.359375 1.5625q2.578125 1.546875 3.875 4.375q1.296875 2.828125 1.296875 6.65625l0 3.203125l-18.28125 0l-0.078125 0.125q0.0625 2.71875 0.953125 4.8125q0.90625 2.09375 2.59375 3.296875q1.6875 1.1875 4.0625 1.1875q2.609375 0 4.5625 -0.734375q1.96875 -0.75 3.40625 -2.046875l2.0 3.328125q-1.5 1.46875 -4.0 2.46875q-2.484375 1.0 -5.96875 1.0zm-7.375 -17.453125l13.0 0l0 -0.671875q0 -2.03125 -0.71875 -3.625q-0.71875 -1.609375 -2.140625 -2.53125q-1.40625 -0.921875 -3.546875 -0.921875q-1.71875 0 -3.125 1.0q-1.40625 1.0 -2.328125 2.71875q-0.90625 1.71875 -1.1875 3.90625l0.046875 0.125zm33.643127 17.453125q-2.828125 0 -5.3125 -0.5625q-2.46875 -0.578125 -5.25 -1.78125l-0.0625 -6.6875l3.890625 0l0.953125 4.03125q1.46875 0.59375 2.828125 0.875q1.375 0.265625 2.953125 0.265625q3.125 0 4.484375 -1.1875q1.359375 -1.203125 1.359375 -2.96875q0 -1.671875 -1.375 -2.828125q-1.359375 -1.15625 -4.953125 -1.96875q-5.109375 -1.171875 -7.515625 -3.140625q-2.40625 -1.96875 -2.40625 -5.25q0 -2.28125 1.328125 -4.09375q1.328125 -1.8125 3.6875 -2.875q2.375 -1.0625 5.53125 -1.0625q3.203125 0 5.46875 0.734375q2.28125 0.71875 3.984375 1.9375l0.25 6.4375l-3.84375 0l-0.84375 -3.75q-0.90625 -0.6875 -2.15625 -1.046875q-1.25 -0.359375 -2.859375 -0.359375q-2.40625 0 -3.90625 1.125q-1.484375 1.109375 -1.484375 2.796875q0 1.0 0.421875 1.734375q0.4375 0.71875 1.65625 1.3125q1.21875 0.578125 3.59375 1.15625q5.890625 1.375 8.21875 3.515625q2.328125 2.125 2.328125 5.25q0 3.578125 -2.640625 5.984375q-2.640625 2.40625 -8.328125 2.40625z" fill-rule="nonzero"/><path fill="#000000" fill-opacity="0.0" d="m176.4096 320.15222l607.1811 0l0 95.433075l-607.1811 0z" fill-rule="evenodd"/><path fill="#8bc34a" d="m398.04703 356.80023l0 -1.96875l2.546875 -0.4375l0 -17.921875l-2.546875 -0.4375l0 -1.984375l2.546875 0l4.109375 0l7.328125 17.265625l0.09375 0l7.09375 -17.265625l6.859375 0l0 1.984375l-2.546875 0.4375l0 17.921875l2.546875 0.4375l0 1.96875l-8.171875 0l0 -1.96875l2.6875 -0.4375l0 -6.59375l0 -9.546875l-0.078125 -0.015625l-7.390625 17.75l-2.046875 0l-7.640625 -17.71875l-0.078125 0.015625l0.109375 9.515625l0 6.59375l2.75 0.4375l0 1.96875l-8.171875 0zm30.546875 0l0 -1.96875l2.546875 -0.4375l0 -12.078125l-2.546875 -0.4375l0 -1.984375l5.625 0l0 14.5l2.546875 0.4375l0 1.96875l-8.171875 0zm2.390625 -21.078125l0 -3.296875l3.234375 0l0 3.296875l-3.234375 0zm7.515625 21.078125l0 -1.96875l2.546875 -0.4375l0 -19.546875l-2.546875 -0.4375l0 -1.984375l5.625 0l0 9.71875q0.875 -1.21875 2.140625 -1.890625q1.265625 -0.671875 2.8125 -0.671875q2.71875 0 4.21875 1.625q1.5 1.625 1.5 5.0l0 8.1875l2.546875 0.4375l0 1.96875l-8.171875 0l0 -1.96875l2.546875 -0.4375l0 -8.21875q0 -2.09375 -0.90625 -3.09375q-0.890625 -1.0 -2.671875 -1.0q-1.265625 0 -2.3125 0.609375q-1.03125 0.59375 -1.703125 1.625l0 10.078125l2.546875 0.4375l0 1.96875l-8.171875 0zm20.828125 0l0 -1.96875l2.546875 -0.4375l0 -12.078125l-2.546875 -0.4375l0 -1.984375l5.625 0l0 14.5l2.546875 0.4375l0 1.96875l-8.171875 0zm2.390625 -21.078125l0 -3.296875l3.234375 0l0 3.296875l-3.234375 0zm7.875 21.078125l0 -1.96875l2.546875 -0.4375l0 -12.078125l-2.546875 -0.4375l0 -1.984375l5.296875 0l0.265625 2.15625l0.03125 0.296875q0.71875 -1.296875 1.765625 -2.03125q1.0625 -0.734375 2.421875 -0.734375q0.484375 0 0.984375 0.09375q0.515625 0.078125 0.734375 0.15625l-0.40625 2.859375l-2.140625 -0.125q-1.21875 -0.078125 -2.046875 0.5625q-0.828125 0.625 -1.28125 1.6875l0 9.578125l2.546875 0.4375l0 1.96875l-8.171875 0zm21.265625 0l0 -1.96875l1.6875 -0.234375l7.953125 -20.546875l2.640625 0l7.8125 20.546875l1.6719055 0.234375l0 1.96875l-6.5312805 0l0 -1.96875l1.71875 -0.296875l-1.5 -4.1875l-9.109375 0l-1.546875 4.1875l1.71875 0.296875l0 1.96875l-6.515625 0zm7.296875 -9.03125l7.21875 0l-3.34375 -9.25l-0.1875 -0.515625l-0.09375 0l-0.1875 0.515625l-3.40625 9.25zm16.68753 9.03125l0 -1.96875l2.546875 -0.4375l0 -12.078125l-2.546875 -0.4375l0 -1.984375l5.296875 0l0.265625 2.15625l0.03125 0.296875q0.71875 -1.296875 1.765625 -2.03125q1.0625 -0.734375 2.421875 -0.734375q0.484375 0 0.984375 0.09375q0.515625 0.078125 0.734375 0.15625l-0.40625 2.859375l-2.140625 -0.125q-1.21875 -0.078125 -2.046875 0.5625q-0.828125 0.625 -1.28125 1.6875l0 9.578125l2.546875 0.4375l0 1.96875l-8.171875 0zm17.328125 6.828125q-0.359375 0 -0.9375 -0.09375q-0.578125 -0.078125 -0.890625 -0.15625l0.3125 -2.421875q0.265625 0.03125 0.734375 0.046875q0.46875 0.03125 0.640625 0.03125q0.984375 0 1.59375 -0.75q0.625 -0.75 1.15625 -2.046875l0.734375 -1.78125l-5.984375 -14.328125l-1.8125 -0.25l0 -1.984375l7.09375 0l0 1.984375l-2.046875 0.3125l3.296875 8.453125l0.796875 2.203125l0.09375 0l3.90625 -10.65625l-2.15625 -0.3125l0 -1.984375l6.953125 0l0 1.984375l-1.75 0.25l-6.65625 17.265625q-0.46875 1.21875 -1.140625 2.171875q-0.65625 0.96875 -1.625 1.515625q-0.953125 0.546875 -2.3125 0.546875zm20.1875 -6.5q-2.640625 0 -4.015625 -1.28125q-1.375 -1.296875 -1.375 -3.640625q0 -1.609375 0.875 -2.796875q0.890625 -1.203125 2.5625 -1.859375q1.671875 -0.671875 4.0 -0.671875l3.015625 0l0 -1.65625q0 -1.53125 -0.9375 -2.375q-0.921875 -0.84375 -2.609375 -0.84375q-1.0625 0 -1.84375 0.265625q-0.78125 0.25 -1.421875 0.703125l-0.328125 2.359375l-2.375 0l0 -3.875q1.140625 -0.921875 2.65625 -1.390625q1.515625 -0.484375 3.359375 -0.484375q3.078125 0 4.828125 1.46875q1.75 1.46875 1.75 4.203125l0 8.140625q0 0.328125 0 0.640625q0.015625 0.3125 0.046875 0.625l1.640625 0.171875l0 1.96875l-4.421875 0q-0.140625 -0.6875 -0.21875 -1.234375q-0.078125 -0.546875 -0.109375 -1.09375q-0.890625 1.140625 -2.234375 1.90625q-1.328125 0.75 -2.84375 0.75zm0.453125 -2.578125q1.53125 0 2.796875 -0.734375q1.265625 -0.734375 1.8125 -1.765625l0 -3.0625l-3.125 0q-2.125 0 -3.1875 1.015625q-1.0625 1.015625 -1.0625 2.265625q0 1.109375 0.6875 1.703125q0.6875 0.578125 2.078125 0.578125z" fill-rule="nonzero"/><path fill="#8bc34a" d="m419.17984 391.68835q-3.421875 0 -5.71875 -1.5q-2.28125 -1.5 -3.4375 -4.109375q-1.140625 -2.609375 -1.140625 -5.921875l0 -0.328125q0 -3.34375 1.203125 -5.9375q1.203125 -2.609375 3.453125 -4.109375q2.25 -1.5 5.375 -1.5q2.203125 0 4.03125 0.6875q1.828125 0.6875 3.03125 1.75l0 4.90625l-2.453125 0l-0.328125 -3.59375q-0.5 -0.390625 -1.15625 -0.65625q-0.640625 -0.265625 -1.4375 -0.40625q-0.78125 -0.140625 -1.703125 -0.140625q-2.234375 0 -3.78125 1.15625q-1.546875 1.140625 -2.34375 3.15625q-0.796875 2.015625 -0.796875 4.65625l0 0.359375q0 2.859375 0.84375 4.890625q0.859375 2.015625 2.484375 3.078125q1.640625 1.0625 3.984375 1.0625q1.09375 0 2.140625 -0.265625q1.046875 -0.265625 1.734375 -0.6875l0.34375 -3.171875l2.40625 0l0 4.9375q-1.28125 0.796875 -3.0625 1.25q-1.78125 0.4375 -3.671875 0.4375zm9.375 -0.328125l0 -1.96875l2.546875 -0.4375l0 -19.546875l-2.546875 -0.4375l0 -1.984375l5.625 0l0 9.71875q0.875 -1.21875 2.140625 -1.890625q1.265625 -0.671875 2.8125 -0.671875q2.71875 0 4.21875 1.625q1.5 1.625 1.5 5.0l0 8.1875l2.546875 0.4375l0 1.96875l-8.171875 0l0 -1.96875l2.546875 -0.4375l0 -8.21875q0 -2.09375 -0.90625 -3.09375q-0.890625 -1.0 -2.671875 -1.0q-1.265625 0 -2.3125 0.609375q-1.03125 0.59375 -1.703125 1.625l0 10.078125l2.546875 0.4375l0 1.96875l-8.171875 0zm20.90625 0l0 -1.96875l2.546875 -0.4375l0 -12.078125l-2.546875 -0.4375l0 -1.984375l5.296875 0l0.265625 2.15625l0.03125 0.296875q0.71875 -1.296875 1.765625 -2.03125q1.0625 -0.734375 2.421875 -0.734375q0.484375 0 0.984375 0.09375q0.515625 0.078125 0.734375 0.15625l-0.40625 2.859375l-2.140625 -0.125q-1.21875 -0.078125 -2.046875 0.5625q-0.828125 0.625 -1.28125 1.6875l0 9.578125l2.546875 0.4375l0 1.96875l-8.171875 0zm13.265625 0l0 -1.96875l2.546875 -0.4375l0 -12.078125l-2.546875 -0.4375l0 -1.984375l5.625 0l0 14.5l2.546875 0.4375l0 1.96875l-8.171875 0zm2.390625 -21.078125l0 -3.296875l3.234375 0l0 3.296875l-3.234375 0zm14.75 21.40625q-1.703125 0 -3.1875 -0.34375q-1.484375 -0.34375 -3.15625 -1.0625l-0.03125 -4.015625l2.328125 0l0.578125 2.421875q0.875 0.359375 1.6875 0.53125q0.828125 0.15625 1.78125 0.15625q1.875 0 2.6875 -0.71875q0.8125 -0.71875 0.8125 -1.78125q0 -1.0 -0.828125 -1.6875q-0.8125 -0.703125 -2.96875 -1.1875q-3.0625 -0.703125 -4.515625 -1.875q-1.4375 -1.1875 -1.4375 -3.15625q0 -1.375 0.796875 -2.453125q0.796875 -1.09375 2.21875 -1.734375q1.421875 -0.640625 3.3125 -0.640625q1.921875 0 3.28125 0.4375q1.375 0.4375 2.390625 1.171875l0.15625 3.859375l-2.3125 0l-0.5 -2.25q-0.546875 -0.40625 -1.296875 -0.625q-0.75 -0.21875 -1.71875 -0.21875q-1.4375 0 -2.34375 0.671875q-0.890625 0.671875 -0.890625 1.6875q0 0.59375 0.25 1.03125q0.265625 0.4375 1.0 0.796875q0.734375 0.34375 2.15625 0.6875q3.53125 0.828125 4.921875 2.109375q1.40625 1.28125 1.40625 3.15625q0 2.140625 -1.59375 3.59375q-1.578125 1.4375 -4.984375 1.4375zm17.1875 -0.328125l0 -1.96875l2.546875 -0.4375l0 -17.921875l-2.546875 -0.4375l0 -1.984375l2.546875 0l3.078125 0l2.546875 0l0 1.984375l-2.546875 0.4375l0 17.96875l8.046875 0l0.359375 -3.59375l2.3594055 0l0 5.953125l-16.390656 0zm26.75003 0.328125q-2.34375 0 -4.046875 -1.09375q-1.6875 -1.109375 -2.609375 -3.046875q-0.921875 -1.953125 -0.921875 -4.453125l0 -0.34375q0 -2.5 0.921875 -4.4375q0.921875 -1.953125 2.609375 -3.0625q1.703125 -1.109375 4.015625 -1.109375q2.34375 0 4.03125 1.109375q1.703125 1.109375 2.625 3.046875q0.921875 1.9375 0.921875 4.453125l0 0.34375q0 2.515625 -0.921875 4.46875q-0.921875 1.9375 -2.609375 3.03125q-1.6875 1.09375 -4.015625 1.09375zm0 -2.40625q1.46875 0 2.453125 -0.796875q1.0 -0.8125 1.5 -2.203125q0.515625 -1.40625 0.515625 -3.1875l0 -0.34375q0 -1.78125 -0.515625 -3.171875q-0.5 -1.40625 -1.5 -2.203125q-1.0 -0.8125 -2.484375 -0.8125q-1.46875 0 -2.46875 0.8125q-1.0 0.796875 -1.5 2.203125q-0.5 1.390625 -0.5 3.171875l0 0.34375q0 1.78125 0.5 3.1875q0.5 1.390625 1.5 2.203125q1.015625 0.796875 2.5 0.796875zm9.453125 2.078125l0 -1.96875l2.546875 -0.4375l0 -19.546875l-2.546875 -0.4375l0 -1.984375l5.625 0l0 21.96875l2.546875 0.4375l0 1.96875l-8.171875 0zm10.859375 0l0 -1.96875l1.71875 -0.203125l-0.046875 -0.0625l-4.890625 -6.3125l1.59375 -2.453125l6.828125 8.65625l2.4375 0.375l0 1.96875l-7.640625 0zm-5.453125 -4.890625l-1.140625 -2.421875l7.34375 -7.3125l0.078125 -0.09375l-1.8125 -0.203125l0 -1.984375l7.28125 0l0 1.984375l-2.171875 0.40625l-9.578125 9.625z" fill-rule="nonzero"/></g></svg>
